<svg width="34" height="22" viewBox="0 0 34 22" fill="none" xmlns="http://www.w3.org/2000/svg">
<path d="M11.4102 0.386597C13.0519 0.386697 14.654 0.891703 15.9991 1.83289C17.3443 2.7742 18.3672 4.1068 18.9297 5.64929C19.4922 7.19171 19.567 8.86968 19.1436 10.4559C18.7201 12.0423 17.819 13.4605 16.5625 14.5175L16.1397 14.8729L16.6436 15.1005C18.7131 16.037 20.4937 17.5112 21.8008 19.369L21.8057 19.3759L21.8116 19.3827C21.9131 19.5128 21.9873 19.6626 22.0293 19.8221C22.0714 19.9817 22.0799 20.1482 22.0557 20.3114C22.0315 20.4746 21.9743 20.6309 21.8877 20.7714C21.8012 20.9118 21.6876 21.0338 21.5528 21.1288C21.4179 21.2237 21.2648 21.2899 21.1035 21.3241C20.9421 21.3582 20.7751 21.3592 20.6133 21.327C20.4515 21.2948 20.2972 21.23 20.1612 21.1366H20.1621C20.0261 21.0432 19.9096 20.9235 19.8213 20.7841L19.8174 20.7772L19.8125 20.7704L19.6309 20.5204C18.7069 19.285 17.5158 18.2721 16.1446 17.5594C14.6822 16.7994 13.0583 16.4023 11.4102 16.4022C9.76193 16.4022 8.13736 16.7993 6.67484 17.5594C5.21227 18.3196 3.95403 19.4214 3.00687 20.7704L3.00589 20.7714C2.89457 20.9311 2.746 21.0614 2.57327 21.1512C2.40046 21.2412 2.20851 21.2885 2.0137 21.288H2.01175C1.76186 21.2888 1.51779 21.2106 1.31448 21.0653L1.31253 21.0643L1.2178 20.9901C1.00632 20.807 0.863739 20.5552 0.81546 20.2772C0.76721 19.9992 0.816724 19.7143 0.954132 19.4706L1.01859 19.369C2.32565 17.5112 4.1063 16.037 6.17581 15.1005L6.67972 14.8729L6.25687 14.5175C5.00044 13.4605 4.09927 12.0423 3.67581 10.4559C3.25244 8.86968 3.32719 7.19171 3.88968 5.64929C4.45221 4.1068 5.47511 2.7742 6.82034 1.83289C8.16557 0.89161 9.76835 0.386597 11.4102 0.386597ZM22.0459 0.396362H22.0479C23.6906 0.391666 25.2952 0.89414 26.6426 1.83386C27.99 2.77364 29.015 4.10611 29.5782 5.64929C30.1412 7.19234 30.2154 8.87136 29.7901 10.4579C29.3646 12.0446 28.46 13.462 27.2002 14.5165L26.7754 14.8719L27.2803 15.1005C29.3498 16.037 31.1304 17.5112 32.4375 19.369L32.4395 19.371C32.5323 19.5008 32.5983 19.648 32.6338 19.8036C32.6693 19.9592 32.6738 20.1209 32.6465 20.2782C32.6192 20.4356 32.5606 20.586 32.4746 20.7206C32.3887 20.8552 32.2768 20.9714 32.1455 21.0624L32.1416 21.0653C31.9383 21.2106 31.6943 21.2878 31.4444 21.287C31.2493 21.2857 31.0569 21.2384 30.8838 21.1483C30.7106 21.0581 30.5613 20.9278 30.4483 20.7684C29.4992 19.4223 28.241 18.3234 26.7793 17.5643C25.4087 16.8526 23.8965 16.4589 22.3555 16.411L22.0469 16.4061L21.9258 16.4003C21.6472 16.3725 21.3854 16.2493 21.1856 16.0497C20.9572 15.8213 20.8282 15.5114 20.8282 15.1884C20.8282 14.8653 20.9571 14.5555 21.1856 14.327C21.414 14.0987 21.7239 13.9706 22.0469 13.9706C23.5236 13.9705 24.9402 13.383 25.9844 12.3387C27.0285 11.2945 27.6153 9.87795 27.6153 8.40125C27.6152 6.92451 27.0286 5.50797 25.9844 4.46375C25.0053 3.48462 23.6988 2.90792 22.3223 2.83972L22.0469 2.83289C21.5378 2.83195 21.0306 2.90221 20.541 3.04187L20.42 3.07214C20.3015 3.09499 20.18 3.09969 20.0596 3.08679C19.899 3.06958 19.7431 3.02116 19.6016 2.94324C19.4602 2.86538 19.3358 2.76005 19.2354 2.63367C19.1349 2.50712 19.0604 2.36146 19.0166 2.20593C18.9729 2.05042 18.9608 1.88776 18.9805 1.72742C19.0002 1.56713 19.0518 1.41259 19.1319 1.27234C19.212 1.13204 19.3192 1.00849 19.4473 0.910034C19.5753 0.811688 19.7219 0.739422 19.878 0.69812L19.8838 0.697144C20.587 0.496952 21.3148 0.395148 22.0459 0.396362ZM12.4961 2.94031C11.4159 2.72544 10.2959 2.83524 9.27835 3.25671C8.26097 3.67818 7.39116 4.39188 6.77933 5.3075C6.16751 6.22315 5.84092 7.3 5.84085 8.40125C5.84085 9.87792 6.42766 11.2945 7.47171 12.3387C8.51602 13.3831 9.93331 13.9706 11.4102 13.9706C12.5112 13.9705 13.5875 13.6437 14.503 13.0321C15.4187 12.4202 16.1332 11.5496 16.5547 10.5321C16.976 9.51475 17.0859 8.3953 16.8711 7.31531C16.6563 6.23515 16.1264 5.24251 15.3477 4.46375C14.5689 3.68499 13.5763 3.15519 12.4961 2.94031Z" fill="#4CAF4F" stroke="#4CAF4F" stroke-width="0.696069"/>
</svg>
