<svg width="23" height="23" viewBox="0 0 23 23" fill="none" xmlns="http://www.w3.org/2000/svg">
<path opacity="0.1" fill-rule="evenodd" clip-rule="evenodd" d="M0.674133 11.7743C0.674133 5.62346 5.66039 0.637207 11.8112 0.637207C17.9621 0.637207 22.9484 5.62346 22.9484 11.7743C22.9484 17.9252 17.9621 22.9114 11.8112 22.9114C5.66039 22.9114 0.674133 17.9252 0.674133 11.7743Z" fill="white"/>
<path fill-rule="evenodd" clip-rule="evenodd" d="M11.4777 9.6897L11.5011 10.0751L11.1116 10.0279C9.69374 9.84699 8.4551 9.23355 7.40343 8.20327L6.88928 7.69207L6.75684 8.06957C6.4764 8.91109 6.65557 9.7998 7.23983 10.3975C7.55144 10.7278 7.48133 10.775 6.94381 10.5784C6.75684 10.5155 6.59325 10.4683 6.57767 10.4919C6.52314 10.5469 6.7101 11.2626 6.85812 11.5458C7.06066 11.939 7.47354 12.3244 7.92537 12.5524L8.30709 12.7333L7.85526 12.7412C7.41901 12.7412 7.40343 12.7491 7.45017 12.9142C7.60597 13.4254 8.2214 13.9681 8.90693 14.204L9.38992 14.3692L8.96925 14.6208C8.34604 14.9826 7.61376 15.1871 6.88149 15.2028C6.53093 15.2107 6.24269 15.2422 6.24269 15.2658C6.24269 15.3444 7.19309 15.7848 7.7462 15.9578C9.4055 16.469 11.3764 16.2488 12.8566 15.3759C13.9082 14.7545 14.9599 13.5198 15.4507 12.3244C15.7155 11.6873 15.9804 10.5234 15.9804 9.96496C15.9804 9.60319 16.0038 9.556 16.44 9.12344C16.6971 8.87177 16.9386 8.59651 16.9853 8.51786C17.0632 8.36843 17.0555 8.36843 16.6582 8.50213C15.996 8.73807 15.9025 8.70661 16.2297 8.3527C16.4712 8.10103 16.7594 7.64488 16.7594 7.51118C16.7594 7.48759 16.6426 7.52691 16.5101 7.59769C16.3699 7.67634 16.0583 7.79431 15.8246 7.86509L15.4039 7.99879L15.0222 7.73926C14.8119 7.59769 14.5159 7.4404 14.3601 7.39321C13.9628 7.28311 13.3551 7.29884 12.9968 7.42467C12.023 7.77858 11.4076 8.69088 11.4777 9.6897Z" fill="white"/>
</svg>
